<?xml version="1.0" encoding="UTF-8"?>
<svg xmlns="http://www.w3.org/2000/svg" width="960" height="400" viewBox="0 0 960 400" role="img" aria-labelledby="title desc">
  <title id="title">AirRadar codebase growth</title>
  <desc id="desc">Daily line chart of non-empty physical source lines split between production code and tests, reconstructed from Git history.</desc>
  <rect width="100%" height="100%" rx="12" fill="#ffffff"/>
  <text x="48" y="48" font-family="-apple-system,BlinkMacSystemFont,Segoe UI,sans-serif" font-size="24" font-weight="700" fill="#1f2328">AirRadar codebase growth</text>
  <text x="48" y="72" font-family="-apple-system,BlinkMacSystemFont,Segoe UI,sans-serif" font-size="13" fill="#59636e">Daily Git history · non-empty physical source lines</text>

  <line x1="500" y1="47" x2="528" y2="47" stroke="#0969da" stroke-width="3" stroke-linecap="round"/>
  <text x="536" y="51" font-family="-apple-system,BlinkMacSystemFont,Segoe UI,sans-serif" font-size="13" font-weight="600" fill="#1f2328">Production 141,411</text>
  <line x1="700" y1="47" x2="728" y2="47" stroke="#8250df" stroke-width="3" stroke-linecap="round"/>
  <text x="736" y="51" font-family="-apple-system,BlinkMacSystemFont,Segoe UI,sans-serif" font-size="13" font-weight="600" fill="#1f2328">Tests 43,474</text>

  <line x1="72" y1="92.0" x2="928" y2="92.0" stroke="#d8dee4" stroke-width="1"/>
  <text x="60" y="96.0" text-anchor="end" font-family="-apple-system,BlinkMacSystemFont,Segoe UI,sans-serif" font-size="12" fill="#6e7781">200k</text>
  <line x1="72" y1="142.4" x2="928" y2="142.4" stroke="#d8dee4" stroke-width="1"/>
  <text x="60" y="146.4" text-anchor="end" font-family="-apple-system,BlinkMacSystemFont,Segoe UI,sans-serif" font-size="12" fill="#6e7781">160k</text>
  <line x1="72" y1="192.8" x2="928" y2="192.8" stroke="#d8dee4" stroke-width="1"/>
  <text x="60" y="196.8" text-anchor="end" font-family="-apple-system,BlinkMacSystemFont,Segoe UI,sans-serif" font-size="12" fill="#6e7781">120k</text>
  <line x1="72" y1="243.2" x2="928" y2="243.2" stroke="#d8dee4" stroke-width="1"/>
  <text x="60" y="247.2" text-anchor="end" font-family="-apple-system,BlinkMacSystemFont,Segoe UI,sans-serif" font-size="12" fill="#6e7781">80k</text>
  <line x1="72" y1="293.6" x2="928" y2="293.6" stroke="#d8dee4" stroke-width="1"/>
  <text x="60" y="297.6" text-anchor="end" font-family="-apple-system,BlinkMacSystemFont,Segoe UI,sans-serif" font-size="12" fill="#6e7781">40k</text>
  <line x1="72" y1="344.0" x2="928" y2="344.0" stroke="#d8dee4" stroke-width="1"/>
  <text x="60" y="348.0" text-anchor="end" font-family="-apple-system,BlinkMacSystemFont,Segoe UI,sans-serif" font-size="12" fill="#6e7781">0</text>

  <line x1="72" y1="92" x2="72" y2="344" stroke="#8c959f" stroke-width="1"/>
  <line x1="72" y1="344" x2="928" y2="344" stroke="#8c959f" stroke-width="1"/>

  <path d="M 72.0 334.6 L 95.6 331.6 L 122.7 319.9 L 146.3 314.3 L 173.3 304.3 L 197.4 299.2 L 221.2 293.8 L 273.1 293.2 L 295.2 291.0 L 321.0 291.0 L 350.7 288.8 L 368.3 284.2 L 400.4 279.9 L 421.6 277.4 L 468.7 276.2 L 498.5 273.8 L 576.7 267.7 L 601.3 259.6 L 623.1 254.9 L 651.0 253.3 L 722.8 250.4 L 749.4 249.0 L 777.1 234.8 L 801.6 219.3 L 829.2 203.0 L 853.1 181.2 L 878.7 176.4 L 902.1 174.0 L 928.0 165.8" fill="none" stroke="#0969da" stroke-width="3" stroke-linecap="round" stroke-linejoin="round"/>
  <path d="M 72.0 342.5 L 95.6 341.0 L 122.7 337.2 L 146.3 335.4 L 173.3 332.4 L 197.4 330.7 L 221.2 329.6 L 273.1 329.4 L 295.2 329.3 L 321.0 329.3 L 350.7 328.9 L 368.3 328.0 L 400.4 327.1 L 421.6 326.3 L 468.7 325.5 L 498.5 324.7 L 576.7 322.2 L 601.3 320.3 L 623.1 319.8 L 651.0 318.7 L 722.8 318.3 L 749.4 317.6 L 777.1 311.6 L 801.6 305.1 L 829.2 299.6 L 853.1 295.0 L 878.7 292.9 L 902.1 291.7 L 928.0 289.2" fill="none" stroke="#8250df" stroke-width="3" stroke-linecap="round" stroke-linejoin="round"/>
  <circle cx="928.0" cy="165.8" r="4.5" fill="#0969da"/>
  <circle cx="928.0" cy="289.2" r="4.5" fill="#8250df"/>

  <text x="72.0" y="376" text-anchor="middle" font-family="-apple-system,BlinkMacSystemFont,Segoe UI,sans-serif" font-size="12" fill="#6e7781">2026-09-06</text>
  <text x="221.2" y="376" text-anchor="middle" font-family="-apple-system,BlinkMacSystemFont,Segoe UI,sans-serif" font-size="12" fill="#6e7781">2026-09-12</text>
  <text x="368.3" y="376" text-anchor="middle" font-family="-apple-system,BlinkMacSystemFont,Segoe UI,sans-serif" font-size="12" fill="#6e7781">2026-09-18</text>
  <text x="601.3" y="376" text-anchor="middle" font-family="-apple-system,BlinkMacSystemFont,Segoe UI,sans-serif" font-size="12" fill="#6e7781">2026-09-27</text>
  <text x="777.1" y="376" text-anchor="middle" font-family="-apple-system,BlinkMacSystemFont,Segoe UI,sans-serif" font-size="12" fill="#6e7781">2026-10-04</text>
  <text x="928.0" y="376" text-anchor="middle" font-family="-apple-system,BlinkMacSystemFont,Segoe UI,sans-serif" font-size="12" fill="#6e7781">2026-10-10</text>
</svg>
