<?xml version="1.0" encoding="UTF-8"?>
<svg xmlns="http://www.w3.org/2000/svg" width="960" height="400" viewBox="0 0 960 400" role="img" aria-labelledby="title desc">
  <title id="title">AirRadar codebase growth</title>
  <desc id="desc">Daily line chart of non-empty physical source lines split between production code and tests, reconstructed from Git history.</desc>
  <rect width="100%" height="100%" rx="12" fill="#ffffff"/>
  <text x="48" y="48" font-family="-apple-system,BlinkMacSystemFont,Segoe UI,sans-serif" font-size="24" font-weight="700" fill="#1f2328">AirRadar codebase growth</text>
  <text x="48" y="72" font-family="-apple-system,BlinkMacSystemFont,Segoe UI,sans-serif" font-size="13" fill="#59636e">Daily Git history · non-empty physical source lines</text>

  <line x1="500" y1="47" x2="528" y2="47" stroke="#0969da" stroke-width="3" stroke-linecap="round"/>
  <text x="536" y="51" font-family="-apple-system,BlinkMacSystemFont,Segoe UI,sans-serif" font-size="13" font-weight="600" fill="#1f2328">Production 92,683</text>
  <line x1="700" y1="47" x2="728" y2="47" stroke="#8250df" stroke-width="3" stroke-linecap="round"/>
  <text x="736" y="51" font-family="-apple-system,BlinkMacSystemFont,Segoe UI,sans-serif" font-size="13" font-weight="600" fill="#1f2328">Tests 27,806</text>

  <line x1="72" y1="92.0" x2="928" y2="92.0" stroke="#d8dee4" stroke-width="1"/>
  <text x="60" y="96.0" text-anchor="end" font-family="-apple-system,BlinkMacSystemFont,Segoe UI,sans-serif" font-size="12" fill="#6e7781">100k</text>
  <line x1="72" y1="142.4" x2="928" y2="142.4" stroke="#d8dee4" stroke-width="1"/>
  <text x="60" y="146.4" text-anchor="end" font-family="-apple-system,BlinkMacSystemFont,Segoe UI,sans-serif" font-size="12" fill="#6e7781">80k</text>
  <line x1="72" y1="192.8" x2="928" y2="192.8" stroke="#d8dee4" stroke-width="1"/>
  <text x="60" y="196.8" text-anchor="end" font-family="-apple-system,BlinkMacSystemFont,Segoe UI,sans-serif" font-size="12" fill="#6e7781">60k</text>
  <line x1="72" y1="243.2" x2="928" y2="243.2" stroke="#d8dee4" stroke-width="1"/>
  <text x="60" y="247.2" text-anchor="end" font-family="-apple-system,BlinkMacSystemFont,Segoe UI,sans-serif" font-size="12" fill="#6e7781">40k</text>
  <line x1="72" y1="293.6" x2="928" y2="293.6" stroke="#d8dee4" stroke-width="1"/>
  <text x="60" y="297.6" text-anchor="end" font-family="-apple-system,BlinkMacSystemFont,Segoe UI,sans-serif" font-size="12" fill="#6e7781">20k</text>
  <line x1="72" y1="344.0" x2="928" y2="344.0" stroke="#d8dee4" stroke-width="1"/>
  <text x="60" y="348.0" text-anchor="end" font-family="-apple-system,BlinkMacSystemFont,Segoe UI,sans-serif" font-size="12" fill="#6e7781">0</text>

  <line x1="72" y1="92" x2="72" y2="344" stroke="#8c959f" stroke-width="1"/>
  <line x1="72" y1="344" x2="928" y2="344" stroke="#8c959f" stroke-width="1"/>

  <path d="M 72.0 325.2 L 100.1 319.2 L 132.5 295.8 L 160.7 284.6 L 192.9 264.5 L 221.6 254.5 L 250.1 243.7 L 312.0 242.4 L 338.3 237.9 L 369.1 237.9 L 404.6 233.7 L 425.6 224.5 L 463.9 215.7 L 489.2 210.8 L 545.4 208.3 L 580.9 203.6 L 674.3 191.5 L 703.6 175.2 L 729.7 165.9 L 762.9 162.5 L 848.6 156.7 L 880.4 154.0 L 913.4 125.5 L 928.0 110.4" fill="none" stroke="#0969da" stroke-width="3" stroke-linecap="round" stroke-linejoin="round"/>
  <path d="M 72.0 341.0 L 100.1 337.9 L 132.5 330.4 L 160.7 326.7 L 192.9 320.8 L 221.6 317.4 L 250.1 315.2 L 312.0 314.9 L 338.3 314.7 L 369.1 314.7 L 404.6 313.8 L 425.6 312.0 L 463.9 310.2 L 489.2 308.6 L 545.4 307.0 L 580.9 305.4 L 674.3 300.4 L 703.6 296.7 L 729.7 295.6 L 762.9 293.5 L 848.6 292.6 L 880.4 291.1 L 913.4 279.3 L 928.0 273.9" fill="none" stroke="#8250df" stroke-width="3" stroke-linecap="round" stroke-linejoin="round"/>
  <circle cx="928.0" cy="110.4" r="4.5" fill="#0969da"/>
  <circle cx="928.0" cy="273.9" r="4.5" fill="#8250df"/>

  <text x="72.0" y="376" text-anchor="middle" font-family="-apple-system,BlinkMacSystemFont,Segoe UI,sans-serif" font-size="12" fill="#6e7781">2026-09-06</text>
  <text x="221.6" y="376" text-anchor="middle" font-family="-apple-system,BlinkMacSystemFont,Segoe UI,sans-serif" font-size="12" fill="#6e7781">2026-09-11</text>
  <text x="369.1" y="376" text-anchor="middle" font-family="-apple-system,BlinkMacSystemFont,Segoe UI,sans-serif" font-size="12" fill="#6e7781">2026-09-16</text>
  <text x="545.4" y="376" text-anchor="middle" font-family="-apple-system,BlinkMacSystemFont,Segoe UI,sans-serif" font-size="12" fill="#6e7781">2026-09-22</text>
  <text x="729.7" y="376" text-anchor="middle" font-family="-apple-system,BlinkMacSystemFont,Segoe UI,sans-serif" font-size="12" fill="#6e7781">2026-09-28</text>
  <text x="928.0" y="376" text-anchor="middle" font-family="-apple-system,BlinkMacSystemFont,Segoe UI,sans-serif" font-size="12" fill="#6e7781">2026-10-05</text>
</svg>
